<svg width="80" height="80" viewBox="0 0 80 80" fill="none" xmlns="http://www.w3.org/2000/svg">
<path fill-rule="evenodd" clip-rule="evenodd" d="M56.3901 23.0166C56.3901 28.7849 54.9567 36.3083 52.7517 35.1666C51.8501 38.1111 49.9571 40.6528 47.3943 42.3601C44.8314 44.0674 41.7566 44.8351 38.692 44.5328C35.6274 44.2305 32.7619 42.8768 30.582 40.7016C28.4022 38.5265 27.0423 35.6639 26.7334 32.5999C24.5451 28.7716 21.6751 21.0999 29.0534 15.1199C29.1867 15.0766 29.2667 14.7166 29.3867 14.1866C29.8434 12.1816 30.8551 7.72495 37.2367 8.57661C42.1584 9.23161 56.3901 11.7716 56.3901 23.0166ZM50.0467 26.6533C50.0467 26.6533 49.2934 28.8566 50.0001 31.3116C49.9909 33.9293 48.9557 36.4389 47.1167 38.3018C45.2777 40.1647 42.7816 41.2322 40.1643 41.2752C37.547 41.3182 35.0172 40.3332 33.1181 38.5317C31.2189 36.7302 30.1019 34.2559 30.0067 31.6399C30.2484 30.7233 30.2484 29.1716 30.2467 27.4466C30.2451 24.3349 30.2417 20.6633 31.6667 19.1666C41.6484 25.8149 50.0467 26.6533 50.0467 26.6533Z" fill="#066283"/>
<path d="M21.6667 59.9999C21.6667 58.1965 22.6217 56.6165 24.055 55.7365C24.0004 55.5291 23.9493 55.3207 23.9017 55.1115C23.6488 53.9729 23.4513 52.8226 23.31 51.6649C23.1668 50.5556 23.0806 49.4396 23.0517 48.3215C16.0167 51.0832 10 55.8965 10 60.9499V69.9999H70V60.9499C70 56.1099 64.4833 51.4915 57.8367 48.6832V48.7299C57.8667 49.7465 57.81 50.9132 57.7 52.0349C57.6 53.0749 57.4517 54.1115 57.2733 54.9999H58.3333C58.6428 55 58.946 55.0863 59.2092 55.2491C59.4724 55.4119 59.685 55.6447 59.8233 55.9215L61.49 59.2549C61.6067 59.4865 61.6667 59.7415 61.6667 59.9999V63.3332C61.6667 63.7752 61.4911 64.1991 61.1785 64.5117C60.866 64.8243 60.442 64.9999 60 64.9999H56.6667V61.6665H58.3333V60.3932L57.3033 58.3332H52.6967L51.6667 60.3932V61.6665H53.3333V64.9999H50C49.558 64.9999 49.134 64.8243 48.8215 64.5117C48.5089 64.1991 48.3333 63.7752 48.3333 63.3332V59.9999C48.3333 59.7415 48.3933 59.4865 48.51 59.2549L50.1767 55.9215C50.315 55.6447 50.5276 55.4119 50.7908 55.2491C51.0539 55.0863 51.3572 55 51.6667 54.9999H53.8583C53.895 54.8565 53.9317 54.6982 53.9683 54.5232C54.135 53.7382 54.2833 52.7432 54.3833 51.7149C54.4833 50.6849 54.53 49.6632 54.505 48.8232C54.4988 48.4752 54.4715 48.1279 54.4233 47.7832C54.3867 47.5465 54.35 47.4382 54.3433 47.4149C54.3417 47.4099 54.34 47.4082 54.3433 47.4115L54.3483 47.4099C53.464 47.1351 52.5695 46.8944 51.6667 46.6882C50.8283 46.4965 49.9617 47.6499 49.5833 48.3715H30C29.9513 48.2786 29.9036 48.1853 29.8567 48.0915C29.5033 47.3882 29.0683 46.5199 28.3333 46.6882C27.6917 46.8332 27.05 46.9999 26.4083 47.1832C26.3877 47.4755 26.3788 47.7685 26.3817 48.0615C26.3883 48.9832 26.4767 50.1115 26.6183 51.2515C26.76 52.3882 26.9517 53.4948 27.1517 54.3682C27.2083 54.6198 27.265 54.8465 27.3183 55.0415C28.2712 55.1668 29.1678 55.564 29.9007 56.1856C30.6337 56.8072 31.1719 57.6269 31.4511 58.5465C31.7302 59.4661 31.7385 60.4467 31.4747 61.3709C31.211 62.295 30.6866 63.1236 29.9641 63.7574C29.2417 64.3912 28.3519 64.8034 27.4013 64.9446C26.4507 65.0858 25.4795 64.9501 24.604 64.5536C23.7286 64.1571 22.9859 63.5168 22.465 62.7092C21.944 61.9015 21.6669 60.9609 21.6667 59.9999Z" fill="#066283"/>
<path d="M28.3333 59.9998C28.3333 60.9564 27.5633 61.6914 26.6667 61.6914C25.77 61.6914 25 60.9581 25 59.9998C25 59.0431 25.77 58.3081 26.6667 58.3081C27.5633 58.3081 28.3333 59.0414 28.3333 59.9998Z" fill="#066283"/>
</svg>
