<svg width="80" height="80" viewBox="0 0 80 80" fill="none" xmlns="http://www.w3.org/2000/svg">
<path fill-rule="evenodd" clip-rule="evenodd" d="M29.855 39.5985C26.5883 38.7302 20 36.2952 20 30.7718C20 23.4268 28.9633 13.3335 28.9633 13.3335C28.9633 13.3335 31.8817 8.3335 40.0917 8.3335C48.3 8.3335 52.495 13.3335 52.495 13.3335C52.495 13.3335 58.3333 19.8785 58.3333 30.7718C58.3333 36.3852 55.04 38.6635 51.8483 39.5552C49.255 42.6385 45.2567 44.5935 40.8333 44.5935C36.43 44.5935 32.45 42.6585 29.855 39.5985ZM30.825 34.8618C32.365 38.5685 36.2117 41.2618 40.8333 41.2618C42.7333 41.2618 44.5017 40.8052 46.0333 40.0118L45.9283 40.0002C45.9283 40.0002 55.8917 30.3868 47.5 18.3335C46.5883 16.6385 32.7033 20.8335 30.8333 23.3335C29.71 24.8335 30.23 30.5418 30.825 34.8618Z" fill="#066283"/>
<path d="M24.055 55.737C23.0495 56.353 22.294 57.3045 21.9221 58.4235C21.5501 59.5425 21.5857 60.757 22.0224 61.8523C22.4591 62.9477 23.2689 63.8534 24.3087 64.4096C25.3485 64.9657 26.5514 65.1365 27.7049 64.8916C28.8584 64.6468 29.8883 64.0022 30.6126 63.0716C31.3368 62.141 31.7089 60.9845 31.6631 59.8061C31.6172 58.6278 31.1564 57.5037 30.362 56.6322C29.5676 55.7607 28.4907 55.1981 27.3217 55.0437C27.2592 54.82 27.202 54.595 27.15 54.3687C26.9221 53.339 26.7441 52.2989 26.6167 51.252C26.479 50.1939 26.4011 49.1289 26.3833 48.062C26.3799 47.769 26.3882 47.476 26.4083 47.1837C27.0483 47.0003 27.6917 46.8337 28.3333 46.6887C29.0683 46.522 29.505 47.3887 29.8567 48.092L29.875 48.1287L30 48.3737H49.5817C49.9633 47.6503 50.8283 46.497 51.6667 46.6887C52.56 46.892 53.4583 47.1337 54.3483 47.4103L54.3433 47.412C54.34 47.4087 54.34 47.4087 54.3433 47.4153C54.35 47.4387 54.3867 47.5487 54.4233 47.782C54.465 48.052 54.4933 48.402 54.5067 48.8237C54.53 49.6637 54.4817 50.6853 54.3833 51.7153C54.2833 52.7437 54.135 53.7387 53.9683 54.5237C53.9317 54.6987 53.895 54.857 53.8583 55.0003H51.6667C51.3572 55.0005 51.0539 55.0868 50.7908 55.2496C50.5276 55.4124 50.315 55.6452 50.1767 55.922L48.51 59.2553C48.394 59.4866 48.3335 59.7416 48.3333 60.0003V63.3337C48.3333 63.7757 48.5089 64.1996 48.8215 64.5122C49.134 64.8247 49.558 65.0003 50 65.0003H53.3333V61.667H51.6667V60.3937L52.6967 58.3337H57.3033L58.3333 60.3937V61.667H56.6667V65.0003H60C60.442 65.0003 60.866 64.8247 61.1785 64.5122C61.4911 64.1996 61.6667 63.7757 61.6667 63.3337V60.0003C61.6665 59.7416 61.606 59.4866 61.49 59.2553L59.8233 55.922C59.685 55.6452 59.4724 55.4124 59.2092 55.2496C58.946 55.0868 58.6428 55.0005 58.3333 55.0003H57.2733C57.4517 54.112 57.6 53.0753 57.7 52.0353C57.81 50.912 57.8667 49.747 57.8383 48.7303L57.8367 48.6837C64.4833 51.492 70 56.1103 70 60.9503V70.0003H10V60.9503C10 55.897 16.0167 51.0837 23.0517 48.322C23.07 49.3587 23.1683 50.5303 23.31 51.6653C23.4633 52.8903 23.6717 54.1087 23.9017 55.112C23.9517 55.327 24.0017 55.5353 24.055 55.737Z" fill="#066283"/>
<path d="M26.6667 61.6919C27.5633 61.6919 28.3333 60.9586 28.3333 60.0003C28.3333 59.0436 27.5633 58.3086 26.6667 58.3086C25.77 58.3086 25 59.0419 25 60.0003C25 60.9569 25.77 61.6919 26.6667 61.6919Z" fill="#066283"/>
</svg>
