<svg width="84" height="84" viewBox="0 0 84 84" fill="none" xmlns="http://www.w3.org/2000/svg">
<path d="M41.6663 0C18.6538 0 -0.000331879 18.6542 -0.000331879 41.6667C-0.000331879 64.6792 18.6538 83.3333 41.6663 83.3333H74.9997C77.2098 83.3333 79.3294 82.4554 80.8922 80.8926C82.455 79.3298 83.333 77.2101 83.333 75V41.6667C83.333 18.6542 64.6788 0 41.6663 0ZM41.6663 50H54.1663C55.2714 50 56.3312 50.439 57.1126 51.2204C57.894 52.0018 58.333 53.0616 58.333 54.1667C58.333 55.2717 57.894 56.3315 57.1126 57.1129C56.3312 57.8944 55.2714 58.3333 54.1663 58.3333H41.6663C40.5613 58.3333 39.5015 57.8944 38.7201 57.1129C37.9387 56.3315 37.4997 55.2717 37.4997 54.1667C37.4997 53.0616 37.9387 52.0018 38.7201 51.2204C39.5015 50.439 40.5613 50 41.6663 50ZM29.1663 33.3333H54.1663C55.2283 33.3345 56.2498 33.7412 57.022 34.4702C57.7943 35.1992 58.259 36.1956 58.3212 37.2558C58.3835 38.316 58.0385 39.3599 57.3569 40.1743C56.6753 40.9887 55.7084 41.5121 54.6538 41.6375L54.1663 41.6667H29.1663C28.1043 41.6655 27.0829 41.2588 26.3106 40.5298C25.5384 39.8008 25.0737 38.8044 25.0115 37.7442C24.9492 36.684 25.2941 35.6401 25.9758 34.8257C26.6574 34.0113 27.6243 33.4879 28.6788 33.3625L29.1663 33.3333Z" fill="#066283"/>
</svg>
