<svg width="201" height="128" viewBox="0 0 201 128" fill="none" xmlns="http://www.w3.org/2000/svg">
<path fill-rule="evenodd" clip-rule="evenodd" d="M76.3901 23.0166C76.3901 28.7849 74.9567 36.3083 72.7517 35.1666C71.8501 38.1111 69.9571 40.6528 67.3943 42.3601C64.8314 44.0674 61.7566 44.8351 58.692 44.5328C55.6274 44.2305 52.7619 42.8768 50.582 40.7016C48.4022 38.5265 47.0423 35.6639 46.7334 32.5999C44.5451 28.7716 41.6751 21.0999 49.0534 15.1199C49.1867 15.0766 49.2667 14.7166 49.3867 14.1866C49.8434 12.1816 50.8551 7.72495 57.2367 8.57661C62.1584 9.23161 76.3901 11.7716 76.3901 23.0166ZM70.0467 26.6533C70.0467 26.6533 69.2934 28.8566 70.0001 31.3116C69.9909 33.9293 68.9557 36.4389 67.1167 38.3018C65.2777 40.1647 62.7816 41.2322 60.1643 41.2752C57.547 41.3182 55.0172 40.3332 53.1181 38.5317C51.2189 36.7302 50.1019 34.2559 50.0067 31.6399C50.2484 30.7233 50.2484 29.1716 50.2467 27.4466C50.2451 24.3349 50.2417 20.6633 51.6667 19.1666C61.6484 25.8149 70.0467 26.6533 70.0467 26.6533Z" fill="#066283"/>
<path d="M41.6667 59.9999C41.6667 58.1965 42.6217 56.6165 44.055 55.7365C44.0004 55.5291 43.9493 55.3207 43.9017 55.1115C43.6488 53.9729 43.4513 52.8226 43.31 51.6649C43.1668 50.5556 43.0806 49.4396 43.0517 48.3215C36.0167 51.0832 30 55.8965 30 60.9499V69.9999H90V60.9499C90 56.1099 84.4833 51.4915 77.8367 48.6832V48.7299C77.8667 49.7465 77.81 50.9132 77.7 52.0349C77.6 53.0749 77.4517 54.1115 77.2733 54.9999H78.3333C78.6428 55 78.946 55.0863 79.2092 55.2491C79.4724 55.4119 79.685 55.6447 79.8233 55.9215L81.49 59.2549C81.6067 59.4865 81.6667 59.7415 81.6667 59.9999V63.3332C81.6667 63.7752 81.4911 64.1991 81.1785 64.5117C80.866 64.8243 80.442 64.9999 80 64.9999H76.6667V61.6665H78.3333V60.3932L77.3033 58.3332H72.6967L71.6667 60.3932V61.6665H73.3333V64.9999H70C69.558 64.9999 69.134 64.8243 68.8215 64.5117C68.5089 64.1991 68.3333 63.7752 68.3333 63.3332V59.9999C68.3333 59.7415 68.3933 59.4865 68.51 59.2549L70.1767 55.9215C70.315 55.6447 70.5276 55.4119 70.7908 55.2491C71.0539 55.0863 71.3572 55 71.6667 54.9999H73.8583C73.895 54.8565 73.9317 54.6982 73.9683 54.5232C74.135 53.7382 74.2833 52.7432 74.3833 51.7149C74.4833 50.6849 74.53 49.6632 74.505 48.8232C74.4988 48.4752 74.4715 48.1279 74.4233 47.7832C74.3867 47.5465 74.35 47.4382 74.3433 47.4149C74.3417 47.4099 74.34 47.4082 74.3433 47.4115L74.3483 47.4099C73.464 47.1351 72.5695 46.8944 71.6667 46.6882C70.8283 46.4965 69.9617 47.6499 69.5833 48.3715H50C49.9513 48.2786 49.9036 48.1853 49.8567 48.0915C49.5033 47.3882 49.0683 46.5199 48.3333 46.6882C47.6917 46.8332 47.05 46.9999 46.4083 47.1832C46.3877 47.4755 46.3788 47.7685 46.3817 48.0615C46.3883 48.9832 46.4767 50.1115 46.6183 51.2515C46.76 52.3882 46.9517 53.4948 47.1517 54.3682C47.2083 54.6198 47.265 54.8465 47.3183 55.0415C48.2712 55.1668 49.1678 55.564 49.9007 56.1856C50.6337 56.8072 51.1719 57.6269 51.4511 58.5465C51.7302 59.4661 51.7385 60.4467 51.4747 61.3709C51.211 62.295 50.6866 63.1236 49.9641 63.7574C49.2417 64.3912 48.3519 64.8034 47.4013 64.9446C46.4507 65.0858 45.4795 64.9501 44.604 64.5536C43.7286 64.1571 42.9859 63.5168 42.465 62.7092C41.944 61.9015 41.6669 60.9609 41.6667 59.9999Z" fill="#066283"/>
<path d="M48.3333 60.0003C48.3333 60.9569 47.5633 61.6919 46.6667 61.6919C45.77 61.6919 45 60.9586 45 60.0003C45 59.0436 45.77 58.3086 46.6667 58.3086C47.5633 58.3086 48.3333 59.0419 48.3333 60.0003Z" fill="#066283"/>
<path fill-rule="evenodd" clip-rule="evenodd" d="M130.855 39.598C127.588 38.7297 121 36.2947 121 30.7713C121 23.4263 129.963 13.333 129.963 13.333C129.963 13.333 132.882 8.33301 141.092 8.33301C149.3 8.33301 153.495 13.333 153.495 13.333C153.495 13.333 159.333 19.878 159.333 30.7713C159.333 36.3847 156.04 38.663 152.848 39.5547C150.255 42.638 146.257 44.593 141.833 44.593C137.43 44.593 133.45 42.658 130.855 39.598ZM131.825 34.8613C133.365 38.568 137.212 41.2613 141.833 41.2613C143.733 41.2613 145.502 40.8047 147.033 40.0113L146.928 39.9997C146.928 39.9997 156.892 30.3863 148.5 18.333C147.588 16.638 133.703 20.833 131.833 23.333C130.71 24.833 131.23 30.5413 131.825 34.8613Z" fill="#066283"/>
<path d="M125.055 55.7365C124.049 56.3525 123.294 57.304 122.922 58.423C122.55 59.542 122.586 60.7565 123.022 61.8518C123.459 62.9472 124.269 63.8529 125.309 64.4091C126.349 64.9652 127.551 65.136 128.705 64.8911C129.858 64.6463 130.888 64.0017 131.613 63.0711C132.337 62.1406 132.709 60.984 132.663 59.8057C132.617 58.6273 132.156 57.5032 131.362 56.6317C130.568 55.7602 129.491 55.1976 128.322 55.0432C128.259 54.8195 128.202 54.5945 128.15 54.3682C127.922 53.3385 127.744 52.2984 127.617 51.2515C127.479 50.1934 127.401 49.1284 127.383 48.0615C127.38 47.7685 127.388 47.4755 127.408 47.1832C128.048 46.9998 128.692 46.8332 129.333 46.6882C130.068 46.5215 130.505 47.3882 130.857 48.0915L130.875 48.1282L131 48.3732H150.582C150.963 47.6498 151.828 46.4965 152.667 46.6882C153.56 46.8915 154.458 47.1332 155.348 47.4098L155.343 47.4115C155.34 47.4082 155.34 47.4082 155.343 47.4148C155.35 47.4382 155.387 47.5482 155.423 47.7815C155.465 48.0515 155.493 48.4015 155.507 48.8232C155.53 49.6632 155.482 50.6848 155.383 51.7148C155.283 52.7432 155.135 53.7382 154.968 54.5232C154.932 54.6982 154.895 54.8565 154.858 54.9998H152.667C152.357 55 152.054 55.0863 151.791 55.2491C151.528 55.4119 151.315 55.6447 151.177 55.9215L149.51 59.2548C149.394 59.4861 149.334 59.7411 149.333 59.9998V63.3332C149.333 63.7752 149.509 64.1991 149.821 64.5117C150.134 64.8242 150.558 64.9998 151 64.9998H154.333V61.6665H152.667V60.3932L153.697 58.3332H158.303L159.333 60.3932V61.6665H157.667V64.9998H161C161.442 64.9998 161.866 64.8242 162.179 64.5117C162.491 64.1991 162.667 63.7752 162.667 63.3332V59.9998C162.666 59.7411 162.606 59.4861 162.49 59.2548L160.823 55.9215C160.685 55.6447 160.472 55.4119 160.209 55.2491C159.946 55.0863 159.643 55 159.333 54.9998H158.273C158.452 54.1115 158.6 53.0748 158.7 52.0348C158.81 50.9115 158.867 49.7465 158.838 48.7298L158.837 48.6832C165.483 51.4915 171 56.1098 171 60.9498V69.9998H111V60.9498C111 55.8965 117.017 51.0832 124.052 48.3215C124.07 49.3582 124.168 50.5298 124.31 51.6648C124.463 52.8898 124.672 54.1082 124.902 55.1115C124.952 55.3265 125.002 55.5348 125.055 55.7365Z" fill="#066283"/>
<path d="M127.667 61.6909C128.563 61.6909 129.333 60.9576 129.333 59.9993C129.333 59.0426 128.563 58.3076 127.667 58.3076C126.77 58.3076 126 59.0409 126 59.9993C126 60.9559 126.77 61.6909 127.667 61.6909Z" fill="#066283"/>
<path d="M24.0028 113.158C26.1929 112.361 26.4048 107.419 24.4763 102.121C22.5477 96.8219 19.2088 93.1726 17.0187 93.9698C14.8286 94.7669 14.6167 99.7086 16.5452 105.007C18.4738 110.306 21.8127 113.955 24.0028 113.158Z" stroke="#066283" stroke-linecap="round" stroke-linejoin="round"/>
<path d="M24.0049 113.155C24.9898 111.043 21.6454 107.398 16.5349 105.015C11.4244 102.632 6.48302 102.413 5.49805 104.525C4.51308 106.637 7.85749 110.281 12.968 112.665C18.0785 115.048 23.0199 115.267 24.0049 113.155Z" stroke="#066283" stroke-linecap="round" stroke-linejoin="round"/>
<path d="M31.457 105.009C33.3856 99.7104 33.1736 94.7687 30.9835 93.9716C28.7934 93.1745 25.4546 96.8238 23.526 102.123C21.5974 107.421 21.8094 112.363 23.9994 113.16C26.1895 113.957 29.5284 110.308 31.457 105.009Z" stroke="#066283" stroke-linecap="round" stroke-linejoin="round"/>
<path d="M35.0366 112.66C40.1471 110.277 43.4915 106.633 42.5066 104.521C41.5216 102.409 36.5802 102.628 31.4697 105.011C26.3592 107.394 23.0148 111.039 23.9998 113.151C24.9847 115.263 29.9261 115.044 35.0366 112.66Z" stroke="#066283" stroke-linecap="round" stroke-linejoin="round"/>
<path d="M68.29 101.21C68.29 102.95 67.69 104.4 66.49 105.56C65.31 106.7 63.5 107.27 61.06 107.27H57.04V116H54.31V95.09H61.06C63.42 95.09 65.21 95.66 66.43 96.8C67.67 97.94 68.29 99.41 68.29 101.21ZM61.06 105.02C62.58 105.02 63.7 104.69 64.42 104.03C65.14 103.37 65.5 102.43 65.5 101.21C65.5 98.63 64.02 97.34 61.06 97.34H57.04V105.02H61.06ZM77.503 116.27C76.243 116.27 75.113 116.06 74.113 115.64C73.113 115.2 72.323 114.6 71.743 113.84C71.163 113.06 70.843 112.17 70.783 111.17H73.603C73.683 111.99 74.063 112.66 74.743 113.18C75.443 113.7 76.353 113.96 77.473 113.96C78.513 113.96 79.333 113.73 79.933 113.27C80.533 112.81 80.833 112.23 80.833 111.53C80.833 110.81 80.513 110.28 79.873 109.94C79.233 109.58 78.243 109.23 76.903 108.89C75.683 108.57 74.683 108.25 73.903 107.93C73.143 107.59 72.483 107.1 71.923 106.46C71.383 105.8 71.113 104.94 71.113 103.88C71.113 103.04 71.363 102.27 71.863 101.57C72.363 100.87 73.073 100.32 73.993 99.92C74.913 99.5 75.963 99.29 77.143 99.29C78.963 99.29 80.433 99.75 81.553 100.67C82.673 101.59 83.273 102.85 83.353 104.45H80.623C80.563 103.59 80.213 102.9 79.573 102.38C78.953 101.86 78.113 101.6 77.053 101.6C76.073 101.6 75.293 101.81 74.713 102.23C74.133 102.65 73.843 103.2 73.843 103.88C73.843 104.42 74.013 104.87 74.353 105.23C74.713 105.57 75.153 105.85 75.673 106.07C76.213 106.27 76.953 106.5 77.893 106.76C79.073 107.08 80.033 107.4 80.773 107.72C81.513 108.02 82.143 108.48 82.663 109.1C83.203 109.72 83.483 110.53 83.503 111.53C83.503 112.43 83.253 113.24 82.753 113.96C82.253 114.68 81.543 115.25 80.623 115.67C79.723 116.07 78.683 116.27 77.503 116.27ZM88.7669 96.89C88.2469 96.89 87.8069 96.71 87.4469 96.35C87.0869 95.99 86.9069 95.55 86.9069 95.03C86.9069 94.51 87.0869 94.07 87.4469 93.71C87.8069 93.35 88.2469 93.17 88.7669 93.17C89.2669 93.17 89.6869 93.35 90.0269 93.71C90.3869 94.07 90.5669 94.51 90.5669 95.03C90.5669 95.55 90.3869 95.99 90.0269 96.35C89.6869 96.71 89.2669 96.89 88.7669 96.89ZM90.0869 99.56V116H87.3569V99.56H90.0869ZM103.92 116L97.4697 108.74V116H94.7397V93.8H97.4697V106.85L103.8 99.56H107.61L99.8697 107.75L107.64 116H103.92ZM117.349 116.27C115.809 116.27 114.409 115.92 113.149 115.22C111.909 114.52 110.929 113.53 110.209 112.25C109.509 110.95 109.159 109.45 109.159 107.75C109.159 106.07 109.519 104.59 110.239 103.31C110.979 102.01 111.979 101.02 113.239 100.34C114.499 99.64 115.909 99.29 117.469 99.29C119.029 99.29 120.439 99.64 121.699 100.34C122.959 101.02 123.949 102 124.669 103.28C125.409 104.56 125.779 106.05 125.779 107.75C125.779 109.45 125.399 110.95 124.639 112.25C123.899 113.53 122.889 114.52 121.609 115.22C120.329 115.92 118.909 116.27 117.349 116.27ZM117.349 113.87C118.329 113.87 119.249 113.64 120.109 113.18C120.969 112.72 121.659 112.03 122.179 111.11C122.719 110.19 122.989 109.07 122.989 107.75C122.989 106.43 122.729 105.31 122.209 104.39C121.689 103.47 121.009 102.79 120.169 102.35C119.329 101.89 118.419 101.66 117.439 101.66C116.439 101.66 115.519 101.89 114.679 102.35C113.859 102.79 113.199 103.47 112.699 104.39C112.199 105.31 111.949 106.43 111.949 107.75C111.949 109.09 112.189 110.22 112.669 111.14C113.169 112.06 113.829 112.75 114.649 113.21C115.469 113.65 116.369 113.87 117.349 113.87ZM128.349 105.53C128.349 103.49 128.809 101.66 129.729 100.04C130.649 98.4 131.899 97.12 133.479 96.2C135.079 95.28 136.849 94.82 138.789 94.82C141.069 94.82 143.059 95.37 144.759 96.47C146.459 97.57 147.699 99.13 148.479 101.15H145.209C144.629 99.89 143.789 98.92 142.689 98.24C141.609 97.56 140.309 97.22 138.789 97.22C137.329 97.22 136.019 97.56 134.859 98.24C133.699 98.92 132.789 99.89 132.129 101.15C131.469 102.39 131.139 103.85 131.139 105.53C131.139 107.19 131.469 108.65 132.129 109.91C132.789 111.15 133.699 112.11 134.859 112.79C136.019 113.47 137.329 113.81 138.789 113.81C140.309 113.81 141.609 113.48 142.689 112.82C143.789 112.14 144.629 111.17 145.209 109.91H148.479C147.699 111.91 146.459 113.46 144.759 114.56C143.059 115.64 141.069 116.18 138.789 116.18C136.849 116.18 135.079 115.73 133.479 114.83C131.899 113.91 130.649 112.64 129.729 111.02C128.809 109.4 128.349 107.57 128.349 105.53ZM151.522 107.72C151.522 106.04 151.862 104.57 152.542 103.31C153.222 102.03 154.152 101.04 155.332 100.34C156.532 99.64 157.862 99.29 159.322 99.29C160.762 99.29 162.012 99.6 163.072 100.22C164.132 100.84 164.922 101.62 165.442 102.56V99.56H168.202V116H165.442V112.94C164.902 113.9 164.092 114.7 163.012 115.34C161.952 115.96 160.712 116.27 159.292 116.27C157.832 116.27 156.512 115.91 155.332 115.19C154.152 114.47 153.222 113.46 152.542 112.16C151.862 110.86 151.522 109.38 151.522 107.72ZM165.442 107.75C165.442 106.51 165.192 105.43 164.692 104.51C164.192 103.59 163.512 102.89 162.652 102.41C161.812 101.91 160.882 101.66 159.862 101.66C158.842 101.66 157.912 101.9 157.072 102.38C156.232 102.86 155.562 103.56 155.062 104.48C154.562 105.4 154.312 106.48 154.312 107.72C154.312 108.98 154.562 110.08 155.062 111.02C155.562 111.94 156.232 112.65 157.072 113.15C157.912 113.63 158.842 113.87 159.862 113.87C160.882 113.87 161.812 113.63 162.652 113.15C163.512 112.65 164.192 111.94 164.692 111.02C165.192 110.08 165.442 108.99 165.442 107.75ZM175.546 102.23C176.026 101.29 176.706 100.56 177.586 100.04C178.486 99.52 179.576 99.26 180.856 99.26V102.08H180.136C177.076 102.08 175.546 103.74 175.546 107.06V116H172.816V99.56H175.546V102.23ZM199.007 107.15C199.007 107.67 198.977 108.22 198.917 108.8H185.777C185.877 110.42 186.427 111.69 187.427 112.61C188.447 113.51 189.677 113.96 191.117 113.96C192.297 113.96 193.277 113.69 194.057 113.15C194.857 112.59 195.417 111.85 195.737 110.93H198.677C198.237 112.51 197.357 113.8 196.037 114.8C194.717 115.78 193.077 116.27 191.117 116.27C189.557 116.27 188.157 115.92 186.917 115.22C185.697 114.52 184.737 113.53 184.037 112.25C183.337 110.95 182.987 109.45 182.987 107.75C182.987 106.05 183.327 104.56 184.007 103.28C184.687 102 185.637 101.02 186.857 100.34C188.097 99.64 189.517 99.29 191.117 99.29C192.677 99.29 194.057 99.63 195.257 100.31C196.457 100.99 197.377 101.93 198.017 103.13C198.677 104.31 199.007 105.65 199.007 107.15ZM196.187 106.58C196.187 105.54 195.957 104.65 195.497 103.91C195.037 103.15 194.407 102.58 193.607 102.2C192.827 101.8 191.957 101.6 190.997 101.6C189.617 101.6 188.437 102.04 187.457 102.92C186.497 103.8 185.947 105.02 185.807 106.58H196.187Z" fill="#066283"/>
</svg>
