<svg width="201" height="48" viewBox="0 0 201 48" fill="none" xmlns="http://www.w3.org/2000/svg">
<path d="M24.0028 33.1588C26.1929 32.3616 26.4048 27.4199 24.4763 22.1212C22.5477 16.8224 19.2088 13.1731 17.0187 13.9702C14.8286 14.7674 14.6167 19.7091 16.5452 25.0078C18.4738 30.3066 21.8127 33.9559 24.0028 33.1588Z" stroke="#066283" stroke-linecap="round" stroke-linejoin="round"/>
<path d="M24.0049 33.1553C24.9898 31.0431 21.6454 27.3989 16.5349 25.0158C11.4244 22.6327 6.48302 22.4132 5.49805 24.5255C4.51308 26.6378 7.85749 30.282 12.968 32.665C18.0785 35.0481 23.0199 35.2676 24.0049 33.1553Z" stroke="#066283" stroke-linecap="round" stroke-linejoin="round"/>
<path d="M31.457 25.0092C33.3856 19.7104 33.1736 14.7687 30.9835 13.9716C28.7934 13.1745 25.4546 16.8238 23.526 22.1225C21.5974 27.4213 21.8094 32.363 23.9994 33.1601C26.1895 33.9572 29.5284 30.308 31.457 25.0092Z" stroke="#066283" stroke-linecap="round" stroke-linejoin="round"/>
<path d="M35.0366 32.6605C40.1471 30.2774 43.4915 26.6332 42.5066 24.5209C41.5216 22.4086 36.5802 22.6282 31.4697 25.0112C26.3592 27.3943 23.0148 31.0385 23.9998 33.1508C24.9847 35.2631 29.9261 35.0435 35.0366 32.6605Z" stroke="#066283" stroke-linecap="round" stroke-linejoin="round"/>
<path d="M68.29 21.21C68.29 22.95 67.69 24.4 66.49 25.56C65.31 26.7 63.5 27.27 61.06 27.27H57.04V36H54.31V15.09H61.06C63.42 15.09 65.21 15.66 66.43 16.8C67.67 17.94 68.29 19.41 68.29 21.21ZM61.06 25.02C62.58 25.02 63.7 24.69 64.42 24.03C65.14 23.37 65.5 22.43 65.5 21.21C65.5 18.63 64.02 17.34 61.06 17.34H57.04V25.02H61.06ZM77.503 36.27C76.243 36.27 75.113 36.06 74.113 35.64C73.113 35.2 72.323 34.6 71.743 33.84C71.163 33.06 70.843 32.17 70.783 31.17H73.603C73.683 31.99 74.063 32.66 74.743 33.18C75.443 33.7 76.353 33.96 77.473 33.96C78.513 33.96 79.333 33.73 79.933 33.27C80.533 32.81 80.833 32.23 80.833 31.53C80.833 30.81 80.513 30.28 79.873 29.94C79.233 29.58 78.243 29.23 76.903 28.89C75.683 28.57 74.683 28.25 73.903 27.93C73.143 27.59 72.483 27.1 71.923 26.46C71.383 25.8 71.113 24.94 71.113 23.88C71.113 23.04 71.363 22.27 71.863 21.57C72.363 20.87 73.073 20.32 73.993 19.92C74.913 19.5 75.963 19.29 77.143 19.29C78.963 19.29 80.433 19.75 81.553 20.67C82.673 21.59 83.273 22.85 83.353 24.45H80.623C80.563 23.59 80.213 22.9 79.573 22.38C78.953 21.86 78.113 21.6 77.053 21.6C76.073 21.6 75.293 21.81 74.713 22.23C74.133 22.65 73.843 23.2 73.843 23.88C73.843 24.42 74.013 24.87 74.353 25.23C74.713 25.57 75.153 25.85 75.673 26.07C76.213 26.27 76.953 26.5 77.893 26.76C79.073 27.08 80.033 27.4 80.773 27.72C81.513 28.02 82.143 28.48 82.663 29.1C83.203 29.72 83.483 30.53 83.503 31.53C83.503 32.43 83.253 33.24 82.753 33.96C82.253 34.68 81.543 35.25 80.623 35.67C79.723 36.07 78.683 36.27 77.503 36.27ZM88.7669 16.89C88.2469 16.89 87.8069 16.71 87.4469 16.35C87.0869 15.99 86.9069 15.55 86.9069 15.03C86.9069 14.51 87.0869 14.07 87.4469 13.71C87.8069 13.35 88.2469 13.17 88.7669 13.17C89.2669 13.17 89.6869 13.35 90.0269 13.71C90.3869 14.07 90.5669 14.51 90.5669 15.03C90.5669 15.55 90.3869 15.99 90.0269 16.35C89.6869 16.71 89.2669 16.89 88.7669 16.89ZM90.0869 19.56V36H87.3569V19.56H90.0869ZM103.92 36L97.4697 28.74V36H94.7397V13.8H97.4697V26.85L103.8 19.56H107.61L99.8697 27.75L107.64 36H103.92ZM117.349 36.27C115.809 36.27 114.409 35.92 113.149 35.22C111.909 34.52 110.929 33.53 110.209 32.25C109.509 30.95 109.159 29.45 109.159 27.75C109.159 26.07 109.519 24.59 110.239 23.31C110.979 22.01 111.979 21.02 113.239 20.34C114.499 19.64 115.909 19.29 117.469 19.29C119.029 19.29 120.439 19.64 121.699 20.34C122.959 21.02 123.949 22 124.669 23.28C125.409 24.56 125.779 26.05 125.779 27.75C125.779 29.45 125.399 30.95 124.639 32.25C123.899 33.53 122.889 34.52 121.609 35.22C120.329 35.92 118.909 36.27 117.349 36.27ZM117.349 33.87C118.329 33.87 119.249 33.64 120.109 33.18C120.969 32.72 121.659 32.03 122.179 31.11C122.719 30.19 122.989 29.07 122.989 27.75C122.989 26.43 122.729 25.31 122.209 24.39C121.689 23.47 121.009 22.79 120.169 22.35C119.329 21.89 118.419 21.66 117.439 21.66C116.439 21.66 115.519 21.89 114.679 22.35C113.859 22.79 113.199 23.47 112.699 24.39C112.199 25.31 111.949 26.43 111.949 27.75C111.949 29.09 112.189 30.22 112.669 31.14C113.169 32.06 113.829 32.75 114.649 33.21C115.469 33.65 116.369 33.87 117.349 33.87ZM128.349 25.53C128.349 23.49 128.809 21.66 129.729 20.04C130.649 18.4 131.899 17.12 133.479 16.2C135.079 15.28 136.849 14.82 138.789 14.82C141.069 14.82 143.059 15.37 144.759 16.47C146.459 17.57 147.699 19.13 148.479 21.15H145.209C144.629 19.89 143.789 18.92 142.689 18.24C141.609 17.56 140.309 17.22 138.789 17.22C137.329 17.22 136.019 17.56 134.859 18.24C133.699 18.92 132.789 19.89 132.129 21.15C131.469 22.39 131.139 23.85 131.139 25.53C131.139 27.19 131.469 28.65 132.129 29.91C132.789 31.15 133.699 32.11 134.859 32.79C136.019 33.47 137.329 33.81 138.789 33.81C140.309 33.81 141.609 33.48 142.689 32.82C143.789 32.14 144.629 31.17 145.209 29.91H148.479C147.699 31.91 146.459 33.46 144.759 34.56C143.059 35.64 141.069 36.18 138.789 36.18C136.849 36.18 135.079 35.73 133.479 34.83C131.899 33.91 130.649 32.64 129.729 31.02C128.809 29.4 128.349 27.57 128.349 25.53ZM151.522 27.72C151.522 26.04 151.862 24.57 152.542 23.31C153.222 22.03 154.152 21.04 155.332 20.34C156.532 19.64 157.862 19.29 159.322 19.29C160.762 19.29 162.012 19.6 163.072 20.22C164.132 20.84 164.922 21.62 165.442 22.56V19.56H168.202V36H165.442V32.94C164.902 33.9 164.092 34.7 163.012 35.34C161.952 35.96 160.712 36.27 159.292 36.27C157.832 36.27 156.512 35.91 155.332 35.19C154.152 34.47 153.222 33.46 152.542 32.16C151.862 30.86 151.522 29.38 151.522 27.72ZM165.442 27.75C165.442 26.51 165.192 25.43 164.692 24.51C164.192 23.59 163.512 22.89 162.652 22.41C161.812 21.91 160.882 21.66 159.862 21.66C158.842 21.66 157.912 21.9 157.072 22.38C156.232 22.86 155.562 23.56 155.062 24.48C154.562 25.4 154.312 26.48 154.312 27.72C154.312 28.98 154.562 30.08 155.062 31.02C155.562 31.94 156.232 32.65 157.072 33.15C157.912 33.63 158.842 33.87 159.862 33.87C160.882 33.87 161.812 33.63 162.652 33.15C163.512 32.65 164.192 31.94 164.692 31.02C165.192 30.08 165.442 28.99 165.442 27.75ZM175.546 22.23C176.026 21.29 176.706 20.56 177.586 20.04C178.486 19.52 179.576 19.26 180.856 19.26V22.08H180.136C177.076 22.08 175.546 23.74 175.546 27.06V36H172.816V19.56H175.546V22.23ZM199.007 27.15C199.007 27.67 198.977 28.22 198.917 28.8H185.777C185.877 30.42 186.427 31.69 187.427 32.61C188.447 33.51 189.677 33.96 191.117 33.96C192.297 33.96 193.277 33.69 194.057 33.15C194.857 32.59 195.417 31.85 195.737 30.93H198.677C198.237 32.51 197.357 33.8 196.037 34.8C194.717 35.78 193.077 36.27 191.117 36.27C189.557 36.27 188.157 35.92 186.917 35.22C185.697 34.52 184.737 33.53 184.037 32.25C183.337 30.95 182.987 29.45 182.987 27.75C182.987 26.05 183.327 24.56 184.007 23.28C184.687 22 185.637 21.02 186.857 20.34C188.097 19.64 189.517 19.29 191.117 19.29C192.677 19.29 194.057 19.63 195.257 20.31C196.457 20.99 197.377 21.93 198.017 23.13C198.677 24.31 199.007 25.65 199.007 27.15ZM196.187 26.58C196.187 25.54 195.957 24.65 195.497 23.91C195.037 23.15 194.407 22.58 193.607 22.2C192.827 21.8 191.957 21.6 190.997 21.6C189.617 21.6 188.437 22.04 187.457 22.92C186.497 23.8 185.947 25.02 185.807 26.58H196.187Z" fill="#066283"/>
</svg>
