<svg width="222" height="48" viewBox="0 0 222 48" fill="none" xmlns="http://www.w3.org/2000/svg">
<rect width="222" height="48" rx="8" fill="#066283"/>
<path d="M33.0028 33.1588C35.1929 32.3616 35.4048 27.4199 33.4763 22.1212C31.5477 16.8224 28.2088 13.1731 26.0187 13.9702C23.8286 14.7674 23.6167 19.7091 25.5452 25.0078C27.4738 30.3066 30.8127 33.9559 33.0028 33.1588Z" stroke="white" stroke-width="2" stroke-linecap="round" stroke-linejoin="round"/>
<path d="M33.0051 33.1553C33.9901 31.0431 30.6457 27.3989 25.5351 25.0158C20.4246 22.6327 15.4833 22.4132 14.4983 24.5255C13.5133 26.6378 16.8577 30.282 21.9682 32.665C27.0788 35.0481 32.0201 35.2676 33.0051 33.1553Z" stroke="white" stroke-width="2" stroke-linecap="round" stroke-linejoin="round"/>
<path d="M40.4567 25.0092C42.3853 19.7104 42.1733 14.7687 39.9832 13.9716C37.7932 13.1745 34.4543 16.8238 32.5257 22.1225C30.5971 27.4213 30.8091 32.363 32.9992 33.1601C35.1893 33.9572 38.5281 30.308 40.4567 25.0092Z" stroke="white" stroke-width="2" stroke-linecap="round" stroke-linejoin="round"/>
<path d="M44.0366 32.6605C49.1471 30.2774 52.4915 26.6332 51.5066 24.5209C50.5216 22.4086 45.5802 22.6282 40.4697 25.0112C35.3592 27.3943 32.0148 31.0385 32.9998 33.1508C33.9847 35.2631 38.9261 35.0435 44.0366 32.6605Z" stroke="white" stroke-width="2" stroke-linecap="round" stroke-linejoin="round"/>
<path d="M77.83 21.36C77.83 22.42 77.58 23.42 77.08 24.36C76.58 25.3 75.78 26.07 74.68 26.67C73.58 27.25 72.17 27.54 70.45 27.54H66.67V36H63.25V15.15H70.45C72.05 15.15 73.4 15.43 74.5 15.99C75.62 16.53 76.45 17.27 76.99 18.21C77.55 19.15 77.83 20.2 77.83 21.36ZM70.45 24.75C71.75 24.75 72.72 24.46 73.36 23.88C74 23.28 74.32 22.44 74.32 21.36C74.32 19.08 73.03 17.94 70.45 17.94H66.67V24.75H70.45ZM87.0918 36.27C85.7918 36.27 84.6218 36.04 83.5818 35.58C82.5618 35.1 81.7518 34.46 81.1518 33.66C80.5518 32.84 80.2318 31.93 80.1918 30.93H83.7318C83.7918 31.63 84.1218 32.22 84.7218 32.7C85.3418 33.16 86.1118 33.39 87.0318 33.39C87.9918 33.39 88.7318 33.21 89.2518 32.85C89.7918 32.47 90.0618 31.99 90.0618 31.41C90.0618 30.79 89.7618 30.33 89.1618 30.03C88.5818 29.73 87.6518 29.4 86.3718 29.04C85.1318 28.7 84.1218 28.37 83.3418 28.05C82.5618 27.73 81.8818 27.24 81.3018 26.58C80.7418 25.92 80.4618 25.05 80.4618 23.97C80.4618 23.09 80.7218 22.29 81.2418 21.57C81.7618 20.83 82.5018 20.25 83.4618 19.83C84.4418 19.41 85.5618 19.2 86.8218 19.2C88.7018 19.2 90.2118 19.68 91.3518 20.64C92.5118 21.58 93.1318 22.87 93.2118 24.51H89.7918C89.7318 23.77 89.4318 23.18 88.8918 22.74C88.3518 22.3 87.6218 22.08 86.7018 22.08C85.8018 22.08 85.1118 22.25 84.6318 22.59C84.1518 22.93 83.9118 23.38 83.9118 23.94C83.9118 24.38 84.0718 24.75 84.3918 25.05C84.7118 25.35 85.1018 25.59 85.5618 25.77C86.0218 25.93 86.7018 26.14 87.6018 26.4C88.8018 26.72 89.7818 27.05 90.5418 27.39C91.3218 27.71 91.9918 28.19 92.5518 28.83C93.1118 29.47 93.4018 30.32 93.4218 31.38C93.4218 32.32 93.1618 33.16 92.6418 33.9C92.1218 34.64 91.3818 35.22 90.4218 35.64C89.4818 36.06 88.3718 36.27 87.0918 36.27ZM98.8572 17.28C98.2372 17.28 97.7172 17.07 97.2972 16.65C96.8772 16.23 96.6672 15.71 96.6672 15.09C96.6672 14.47 96.8772 13.95 97.2972 13.53C97.7172 13.11 98.2372 12.9 98.8572 12.9C99.4572 12.9 99.9672 13.11 100.387 13.53C100.807 13.95 101.017 14.47 101.017 15.09C101.017 15.71 100.807 16.23 100.387 16.65C99.9672 17.07 99.4572 17.28 98.8572 17.28ZM100.537 19.47V36H97.1172V19.47H100.537ZM111.567 27.75L119.187 36H114.567L108.447 28.89V36H105.027V13.8H108.447V26.7L114.447 19.47H119.187L111.567 27.75ZM128.809 36.27C127.249 36.27 125.839 35.92 124.579 35.22C123.319 34.5 122.329 33.5 121.609 32.22C120.889 30.92 120.529 29.42 120.529 27.72C120.529 26.04 120.899 24.55 121.639 23.25C122.379 21.95 123.389 20.95 124.669 20.25C125.949 19.55 127.379 19.2 128.959 19.2C130.539 19.2 131.969 19.55 133.249 20.25C134.529 20.95 135.539 21.95 136.279 23.25C137.019 24.55 137.389 26.04 137.389 27.72C137.389 29.4 137.009 30.89 136.249 32.19C135.489 33.49 134.449 34.5 133.129 35.22C131.829 35.92 130.389 36.27 128.809 36.27ZM128.809 33.3C129.689 33.3 130.509 33.09 131.269 32.67C132.049 32.25 132.679 31.62 133.159 30.78C133.639 29.94 133.879 28.92 133.879 27.72C133.879 26.52 133.649 25.51 133.189 24.69C132.729 23.85 132.119 23.22 131.359 22.8C130.599 22.38 129.779 22.17 128.899 22.17C128.019 22.17 127.199 22.38 126.439 22.8C125.699 23.22 125.109 23.85 124.669 24.69C124.229 25.51 124.009 26.52 124.009 27.72C124.009 29.5 124.459 30.88 125.359 31.86C126.279 32.82 127.429 33.3 128.809 33.3ZM139.63 25.53C139.63 23.49 140.1 21.66 141.04 20.04C142 18.42 143.29 17.16 144.91 16.26C146.55 15.34 148.34 14.88 150.28 14.88C152.5 14.88 154.47 15.43 156.19 16.53C157.93 17.61 159.19 19.15 159.97 21.15H155.86C155.32 20.05 154.57 19.23 153.61 18.69C152.65 18.15 151.54 17.88 150.28 17.88C148.9 17.88 147.67 18.19 146.59 18.81C145.51 19.43 144.66 20.32 144.04 21.48C143.44 22.64 143.14 23.99 143.14 25.53C143.14 27.07 143.44 28.42 144.04 29.58C144.66 30.74 145.51 31.64 146.59 32.28C147.67 32.9 148.9 33.21 150.28 33.21C151.54 33.21 152.65 32.94 153.61 32.4C154.57 31.86 155.32 31.04 155.86 29.94H159.97C159.19 31.94 157.93 33.48 156.19 34.56C154.47 35.64 152.5 36.18 150.28 36.18C148.32 36.18 146.53 35.73 144.91 34.83C143.29 33.91 142 32.64 141.04 31.02C140.1 29.4 139.63 27.57 139.63 25.53ZM162.833 27.66C162.833 26 163.173 24.53 163.853 23.25C164.553 21.97 165.493 20.98 166.673 20.28C167.873 19.56 169.193 19.2 170.633 19.2C171.933 19.2 173.063 19.46 174.023 19.98C175.003 20.48 175.783 21.11 176.363 21.87V19.47H179.813V36H176.363V33.54C175.783 34.32 174.993 34.97 173.993 35.49C172.993 36.01 171.853 36.27 170.573 36.27C169.153 36.27 167.853 35.91 166.673 35.19C165.493 34.45 164.553 33.43 163.853 32.13C163.173 30.81 162.833 29.32 162.833 27.66ZM176.363 27.72C176.363 26.58 176.123 25.59 175.643 24.75C175.183 23.91 174.573 23.27 173.813 22.83C173.053 22.39 172.233 22.17 171.353 22.17C170.473 22.17 169.653 22.39 168.893 22.83C168.133 23.25 167.513 23.88 167.033 24.72C166.573 25.54 166.343 26.52 166.343 27.66C166.343 28.8 166.573 29.8 167.033 30.66C167.513 31.52 168.133 32.18 168.893 32.64C169.673 33.08 170.493 33.3 171.353 33.3C172.233 33.3 173.053 33.08 173.813 32.64C174.573 32.2 175.183 31.56 175.643 30.72C176.123 29.86 176.363 28.86 176.363 27.72ZM187.725 21.87C188.225 21.03 188.885 20.38 189.705 19.92C190.545 19.44 191.535 19.2 192.675 19.2V22.74H191.805C190.465 22.74 189.445 23.08 188.745 23.76C188.065 24.44 187.725 25.62 187.725 27.3V36H184.305V19.47H187.725V21.87ZM210.968 27.33C210.968 27.95 210.928 28.51 210.848 29.01H198.218C198.318 30.33 198.808 31.39 199.688 32.19C200.568 32.99 201.648 33.39 202.928 33.39C204.768 33.39 206.068 32.62 206.828 31.08H210.518C210.018 32.6 209.108 33.85 207.788 34.83C206.488 35.79 204.868 36.27 202.928 36.27C201.348 36.27 199.928 35.92 198.668 35.22C197.428 34.5 196.448 33.5 195.728 32.22C195.028 30.92 194.678 29.42 194.678 27.72C194.678 26.02 195.018 24.53 195.698 23.25C196.398 21.95 197.368 20.95 198.608 20.25C199.868 19.55 201.308 19.2 202.928 19.2C204.488 19.2 205.878 19.54 207.098 20.22C208.318 20.9 209.268 21.86 209.948 23.1C210.628 24.32 210.968 25.73 210.968 27.33ZM207.398 26.25C207.378 24.99 206.928 23.98 206.048 23.22C205.168 22.46 204.078 22.08 202.778 22.08C201.598 22.08 200.588 22.46 199.748 23.22C198.908 23.96 198.408 24.97 198.248 26.25H207.398Z" fill="white"/>
</svg>
